<svg width="32" height="32" viewBox="0 0 32 32" fill="none" xmlns="http://www.w3.org/2000/svg">
<path d="M5.27979 21.1191L10.5595 15.8394L15.8392 21.1191C12.9233 24.0351 8.1957 24.0351 5.27979 21.1191Z" fill="#060198"/>
<path d="M15.8389 10.5596C18.7548 7.64366 23.4824 7.64366 26.3983 10.5596L21.1186 15.8393L15.8389 10.5596Z" fill="#060198"/>
<path d="M5.27973 21.1191C2.36383 18.2032 2.36383 13.4755 5.27973 10.5596L15.8392 0.000164111C18.7551 2.91607 18.7551 7.64372 15.8392 10.5596L5.27973 21.1191Z" fill="#00C0FF"/>
<path fill-rule="evenodd" clip-rule="evenodd" d="M21.1185 26.3984L15.8388 31.6782C12.9229 28.7623 12.9229 24.0346 15.8388 21.1187L15.8389 21.1187L21.1185 15.8391L21.1186 15.839L26.3983 10.5593C29.3142 13.4752 29.3142 18.2028 26.3983 21.1188L26.3983 21.1188L21.1186 26.3985L21.1185 26.3984Z" fill="#0368EC"/>
</svg>
